<?xml version="1.0" encoding="UTF-8" standalone="no"?>
<!-- Created with Inkscape (http://www.inkscape.org/) -->

<svg
   width="210mm"
   height="210mm"
   viewBox="0 0 210 210"
   version="1.1"
   id="svg1"
   inkscape:version="1.4.3 (0d15f75, 2025-12-25)"
   sodipodi:docname="printproxy_Logo.svg"
   xmlns:inkscape="http://www.inkscape.org/namespaces/inkscape"
   xmlns:sodipodi="http://sodipodi.sourceforge.net/DTD/sodipodi-0.dtd"
   xmlns:xlink="http://www.w3.org/1999/xlink"
   xmlns="http://www.w3.org/2000/svg"
   xmlns:svg="http://www.w3.org/2000/svg">
  <sodipodi:namedview
     id="namedview1"
     pagecolor="#505050"
     bordercolor="#eeeeee"
     borderopacity="1"
     inkscape:showpageshadow="0"
     inkscape:pageopacity="0"
     inkscape:pagecheckerboard="0"
     inkscape:deskcolor="#505050"
     inkscape:document-units="mm"
     inkscape:zoom="0.50835204"
     inkscape:cx="215.40191"
     inkscape:cy="579.32294"
     inkscape:window-width="1920"
     inkscape:window-height="1009"
     inkscape:window-x="1912"
     inkscape:window-y="-8"
     inkscape:window-maximized="1"
     inkscape:current-layer="layer3">
    <sodipodi:guide
       position="0,210"
       orientation="0,793.70079"
       id="guide1"
       inkscape:locked="false" />
    <sodipodi:guide
       position="210,210"
       orientation="793.70079,0"
       id="guide2"
       inkscape:locked="false" />
    <sodipodi:guide
       position="210,0"
       orientation="0,-793.70079"
       id="guide3"
       inkscape:locked="false" />
    <sodipodi:guide
       position="0,0"
       orientation="-793.70079,0"
       id="guide4"
       inkscape:locked="false" />
  </sodipodi:namedview>
  <defs
     id="defs1">
    <rect
       x="-213.43477"
       y="204.58264"
       width="126.88058"
       height="220.31976"
       id="rect61" />
    <rect
       x="-292.1204"
       y="188.84551"
       width="217.36905"
       height="253.76115"
       id="rect60" />
    <rect
       x="-362.93746"
       y="100.32418"
       width="267.53114"
       height="431.78739"
       id="rect59" />
    <rect
       x="-202.61549"
       y="229.17189"
       width="152.45341"
       height="251.79401"
       id="rect58" />
    <rect
       x="-163.27268"
       y="337.36463"
       width="88.521333"
       height="77.702059"
       id="rect56" />
    <linearGradient
       id="swatch14"
       inkscape:swatch="solid">
      <stop
         style="stop-color:#a90000;stop-opacity:0;"
         offset="0"
         id="stop14" />
    </linearGradient>
  </defs>
  <g
     inkscape:label="Lag 1"
     inkscape:groupmode="layer"
     id="layer1"
     transform="translate(-28.324202,1.4513477)"
     style="display:inline">
    <g
       inkscape:groupmode="layer"
       id="layer2"
       inkscape:label="Lag 2"
       transform="translate(3.6)"
       style="display:inline">
      <use
         id="use21"
         inkscape:spray-origin="#path20"
         xlink:href="#path20"
         transform="translate(54.05991,59.323536)"
         style="display:inline" />
    </g>
    <path
       style="fill:none;stroke:#0000ff;stroke-width:4.365;stroke-dasharray:none;stroke-dashoffset:0;stroke-opacity:1;stroke-linejoin:miter;stroke-linecap:butt;stroke-miterlimit:10"
       d="M 39.266869,59.045668 119.89121,100.84262 177.85478,60.827248"
       id="path15" />
    <path
       style="fill:none;stroke:#0000ff;stroke-width:4.765;stroke-dasharray:none;stroke-dashoffset:0;stroke-opacity:1;stroke-linecap:butt;stroke-linejoin:miter;stroke-miterlimit:10"
       d="m 119.89121,100.84262 -0.62463,91.84228"
       id="path16" />
    <path
       style="fill:none;stroke:#0000ff;stroke-width:2.665;stroke-linejoin:miter;stroke-dasharray:none;stroke-dashoffset:0;stroke-opacity:1;stroke-linecap:butt;stroke-miterlimit:10;marker-start:"
       d="m 177.85478,60.827248 -1.65452,95.828272 -56.93368,36.02938 -80.61404,-37.28914 0.614329,-96.350092 72.190241,-42.98023 v 0 l 66.39767,44.76181"
       id="path17" />
    <path
       style="fill:#00ffff;stroke:#0000ff;stroke-width:10.0724;stroke-linejoin:miter;stroke-dasharray:none;stroke-dashoffset:0;stroke-opacity:1;stroke-linecap:butt;stroke-miterlimit:10;marker-start:"
       d="m 280.31755,649.68605 -141.63413,-65.64912 0.38394,-118.91008 c 0.21117,-65.40055 0.65377,-142.63629 0.98357,-171.63499 l 0.59963,-52.72491 142.6177,73.95637 142.61771,73.95636 -0.20628,84.50236 c -0.36155,148.10944 -1.38014,242.37755 -2.61768,242.25927 -0.61068,-0.0584 -64.84568,-29.64824 -142.74446,-65.75526 z"
       id="path18"
       transform="matrix(0.26458333,0,0,0.26458333,3.6,0)" />
    <path
       style="fill:#00ffff;stroke:#0000ff;stroke-width:10.0724;stroke-linejoin:miter;stroke-dasharray:none;stroke-dashoffset:0;stroke-opacity:1;stroke-linecap:butt;stroke-miterlimit:10;marker-start:"
       d="m 450.33104,670.13542 c 0.34651,-23.9806 0.9171,-97.2391 1.26797,-162.79666 l 0.63796,-119.19555 99.93508,-69.00252 99.9351,-69.00253 0.26523,5.25399 c 0.33167,6.57034 -5.38177,333.32425 -5.8353,333.72291 -0.18224,0.1602 -42.15768,26.74603 -93.27875,59.07962 -51.12107,32.33359 -95.33463,60.30789 -98.25235,62.16509 l -5.30495,3.37675 z"
       id="path19"
       transform="matrix(0.26458333,0,0,0.26458333,3.6,0)" />
    <path
       style="fill:#00ffff;stroke:#0000ff;stroke-width:10.0724;stroke-linejoin:miter;stroke-dasharray:none;stroke-dashoffset:0;stroke-opacity:1;stroke-linecap:butt;stroke-miterlimit:10;marker-start:"
       d="M 299.00539,293.66788 C 222.18854,253.81807 158.12006,220.55696 156.63098,219.7543 c -2.69343,-1.45183 -2.05205,-1.84959 124.07007,-76.94263 l 126.7775,-75.483246 117.11306,78.954596 c 90.42659,60.96327 116.84144,79.21713 115.92109,80.10672 -0.65558,0.63367 -43.6822,30.45515 -95.61472,66.26997 -51.93251,35.81481 -97.07839,66.99535 -100.32418,69.2901 l -5.90142,4.17228 z"
       id="path20"
       transform="matrix(0.26458333,0,0,0.26458333,3.6,0)" />
    <path
       style="fill:#0000ff;stroke:#0000ff;stroke-width:0;stroke-linecap:butt;stroke-linejoin:miter;stroke-miterlimit:10;stroke-dasharray:none;stroke-dashoffset:0;stroke-opacity:1;fill-opacity:1"
       d="m 178.56188,59.720453 0.61806,1.138534 -1.32516,-0.03174 z"
       id="path53" />
    <path
       style="fill:#0000ff;fill-opacity:1;stroke:#0000ff;stroke-width:16.4976;stroke-linecap:butt;stroke-linejoin:miter;stroke-miterlimit:10;stroke-dasharray:none;stroke-dashoffset:0;stroke-opacity:1"
       d="m 551.07603,235.01504 c 0,-0.0232 0.0669,-0.13019 0.14876,-0.23782 0.2464,-0.32412 0.5734,-1.02617 0.72108,-1.5481 0.0765,-0.27048 0.1455,-0.50154 0.15326,-0.51347 0.0218,-0.0336 1.12846,0.74358 1.12846,0.79246 0,0.0238 -0.39419,0.31476 -0.87599,0.64667 -0.4818,0.33191 -0.9659,0.67073 -1.07578,0.75293 -0.10988,0.0822 -0.19979,0.1305 -0.19979,0.10733 z"
       id="path54"
       transform="matrix(0.26458333,0,0,0.26458333,28.324202,-1.4513477)" />
    <path
       style="fill:#0000ff;fill-opacity:1;stroke:#0000ff;stroke-width:16.4977;stroke-linecap:butt;stroke-linejoin:miter;stroke-miterlimit:10;stroke-dasharray:none;stroke-dashoffset:0;stroke-opacity:1"
       d="m 550.83429,235.22072 c 0.29993,-0.32947 0.60773,-0.79474 0.80437,-1.21584 0.16191,-0.34674 0.29542,-0.7374 0.36852,-1.07834 0.0186,-0.0868 0.0454,-0.22612 0.0491,-0.25549 0.002,-0.0135 0.005,-0.0264 0.007,-0.0287 0.002,-0.002 0.29301,0.19057 0.64628,0.42871 0.35327,0.23814 0.64035,0.43468 0.63796,0.43677 -0.0108,0.009 -2.55049,1.76046 -2.55334,1.76046 -0.002,0 0.0163,-0.0214 0.0401,-0.0475 z m 0.31868,-0.22749 c 0.0236,-0.0137 0.11041,-0.0731 0.19289,-0.13211 0.19276,-0.13781 0.45167,-0.31902 0.84274,-0.58982 0.62945,-0.43588 0.96089,-0.67611 1.02666,-0.74414 l 0.0187,-0.0194 -0.0215,-0.0222 c -0.0727,-0.0752 -0.47055,-0.366 -0.81603,-0.59654 -0.19343,-0.12908 -0.27969,-0.17942 -0.29642,-0.173 -0.008,0.003 -0.0432,0.11663 -0.12824,0.41142 -0.065,0.22537 -0.0776,0.26518 -0.12691,0.40208 -0.1288,0.35737 -0.30557,0.73801 -0.47304,1.01861 -0.0569,0.0953 -0.0951,0.15291 -0.16498,0.24839 -0.0857,0.11715 -0.13219,0.19343 -0.13219,0.21681 0,0.0104 0.002,0.0113 0.0177,0.008 0.01,-0.002 0.037,-0.0147 0.0606,-0.0284 z"
       id="path55"
       transform="matrix(0.26458333,0,0,0.26458333,28.324202,-1.4513477)" />
    <path
       style="fill:#0000ff;fill-opacity:1;stroke:#0000ff;stroke-width:16.4976;stroke-linecap:butt;stroke-linejoin:miter;stroke-miterlimit:10;stroke-dasharray:none;stroke-dashoffset:0;stroke-opacity:1"
       d="m 57.127924,227.521 c -1.153534,-0.59828 -2.104131,-1.09447 -2.112436,-1.10265 -0.0083,-0.008 0.554063,-0.35379 1.249707,-0.76805 l 1.264808,-0.75319 0.0054,0.0903 c 0.0096,0.16114 0.07268,0.58529 0.116921,0.7858 0.227664,1.03172 0.733842,1.95646 1.490053,2.72218 0.06198,0.0628 0.105989,0.11395 0.0978,0.11375 -0.0082,-2e-4 -0.958684,-0.48986 -2.112218,-1.08814 z"
       id="path56"
       transform="matrix(0.26458333,0,0,0.26458333,28.324202,-1.4513477)" />
  </g>
  <g
     inkscape:groupmode="layer"
     id="layer3"
     inkscape:label="Lag 3">
    <text
       xml:space="preserve"
       transform="scale(0.26458333)"
       id="text59"
       style="fill:#0000ff;text-orientation:auto;stroke:#0000ff;stroke-opacity:1;writing-mode:lr-tb;direction:ltr;stroke-dasharray:none;stroke-dashoffset:0;stroke-width:9.69448819;stroke-linejoin:miter;stroke-linecap:butt;stroke-miterlimit:10;fill-opacity:1;white-space:pre;shape-inside:url(#rect60)" />
    <text
       xml:space="preserve"
       transform="scale(0.26458333)"
       id="text60"
       style="writing-mode:lr-tb;direction:ltr;white-space:pre;shape-inside:url(#rect61);fill:#0000ff;fill-opacity:1;stroke:#0000ff;stroke-width:9.69449;stroke-linecap:butt;stroke-linejoin:miter;stroke-miterlimit:10;stroke-dasharray:none;stroke-dashoffset:0;stroke-opacity:1" />
  </g>
</svg>
